<?xml version="1.0" encoding="utf-8"?>
<!-- Generator: Adobe Illustrator 24.3.0, SVG Export Plug-In . SVG Version: 6.00 Build 0)  -->
<svg version="1.1" id="Layer_1" xmlns="http://www.w3.org/2000/svg" xmlns:xlink="http://www.w3.org/1999/xlink" x="0px" y="0px"
	 viewBox="0 0 200 60.2" style="enable-background:new 0 0 200 60.2;" xml:space="preserve">
<style type="text/css">
	.st0{fill:#9CC457;}
	.st1{fill:#FFFFFF;}
</style>
<path class="st0" d="M22.1,54.5l-1-1.1C20.4,52.6,4.9,35.3,4.9,23c0-9.5,7.7-17.2,17.2-17.2S39.3,13.5,39.3,23
	c0,12.3-15.6,29.6-16.2,30.4L22.1,54.5z M22.1,8.4C14,8.4,7.5,15,7.5,23c0,9.6,11.1,23.4,14.6,27.5c3.4-4,14.6-17.9,14.6-27.5
	C36.6,15,30.1,8.4,22.1,8.4z M22.1,30c-3.9,0-7-3.1-7-7s3.1-7,7-7s7,3.1,7,7S25.9,30,22.1,30z M22.1,18.7c-2.4,0-4.3,1.9-4.3,4.3
	s1.9,4.3,4.3,4.3s4.3-1.9,4.3-4.3S24.5,18.7,22.1,18.7z"/>
<g>
	<polygon class="st1" points="71.1,6.1 71.1,8.6 72.5,8.6 72.6,7.6 74.3,7.6 74.3,14.2 73.3,14.4 73.3,15.5 77.2,15.5 77.2,14.4 
		76.2,14.2 76.2,7.6 77.9,7.6 78,8.6 79.4,8.6 79.4,6.1 	"/>
	<polygon class="st1" points="88.6,6.1 86.7,6.1 85.7,6.1 85.7,7.3 86.7,7.5 86.7,10.2 82.9,10.2 82.9,7.5 83.9,7.3 83.9,6.1 
		80,6.1 80,7.3 81,7.5 81,14.2 80,14.4 80,15.5 83.9,15.5 83.9,14.4 82.9,14.2 82.9,11.6 86.7,11.6 86.7,14.2 85.7,14.4 85.7,15.5 
		89.6,15.5 89.6,14.4 88.6,14.2 88.6,7.5 89.6,7.3 89.6,6.1 	"/>
	<polygon class="st1" points="91.2,6.1 90.2,6.1 90.2,7.3 91.2,7.5 91.2,14.2 90.2,14.4 90.2,15.5 97.6,15.5 97.6,12.9 96.2,12.9 
		96.1,14.1 93.1,14.1 93.1,11.4 96.3,11.4 96.3,9.9 93.1,9.9 93.1,7.6 96.1,7.6 96.2,8.7 97.6,8.7 97.6,6.1 	"/>
	<polygon class="st1" points="110.3,6.1 108.4,6.1 107.4,6.1 107.4,7.3 108.4,7.5 108.4,10.2 104.6,10.2 104.6,7.5 105.6,7.3 
		105.6,6.1 101.7,6.1 101.7,7.3 102.7,7.5 102.7,14.2 101.7,14.4 101.7,15.5 105.6,15.5 105.6,14.4 104.6,14.2 104.6,11.6 
		108.4,11.6 108.4,14.2 107.4,14.4 107.4,15.5 111.3,15.5 111.3,14.4 110.3,14.2 110.3,7.5 111.3,7.3 111.3,6.1 	"/>
	<polygon class="st1" points="112,6.1 112,7.3 113,7.5 113,14.2 112,14.4 112,15.5 115.8,15.5 115.8,14.4 114.8,14.2 114.8,7.5 
		115.8,7.3 115.8,6.1 	"/>
	<polygon class="st1" points="119.4,6.1 117.5,6.1 116.5,6.1 116.5,7.3 117.5,7.5 117.5,14.2 116.5,14.4 116.5,15.5 123.5,15.5 
		123.5,12.9 122.1,12.9 122,14.1 119.4,14.1 119.4,7.5 120.4,7.3 120.4,6.1 	"/>
	<polygon class="st1" points="127,6.1 125.1,6.1 124.1,6.1 124.1,7.3 125.1,7.5 125.1,14.2 124.1,14.4 124.1,15.5 131.2,15.5 
		131.2,12.9 129.7,12.9 129.7,14.1 127,14.1 127,7.5 128,7.3 128,6.1 	"/>
	<polygon class="st1" points="130.4,6.1 130.4,8.6 131.8,8.6 131.9,7.6 133.6,7.6 133.6,14.2 132.6,14.4 132.6,15.5 136.5,15.5 
		136.5,14.4 135.5,14.2 135.5,7.6 137.2,7.6 137.3,8.6 138.7,8.6 138.7,6.1 	"/>
	<g>
		<path class="st1" d="M145.8,10.7c0-1-0.2-1.8-0.6-2.4c-0.4-0.6-1-0.9-1.8-0.9s-1.4,0.3-1.8,0.9s-0.6,1.4-0.6,2.4v0.2
			c0,1,0.2,1.8,0.6,2.4c0.4,0.6,1,0.9,1.8,0.9s1.4-0.3,1.8-0.9c0.4-0.6,0.6-1.4,0.6-2.4V10.7z M147.6,10.9c0,1.4-0.4,2.5-1.2,3.4
			s-1.8,1.3-3.1,1.3s-2.3-0.4-3.1-1.3c-0.8-0.9-1.2-2-1.2-3.4v-0.1c0-1.4,0.4-2.5,1.2-3.4S142,6,143.3,6s2.3,0.5,3.1,1.4
			s1.2,2,1.2,3.4V10.9z"/>
		<path class="st1" d="M151.2,10.7h1.6c0.5,0,0.9-0.1,1.2-0.4c0.3-0.3,0.4-0.6,0.4-1.1s-0.1-0.8-0.4-1.1c-0.3-0.3-0.7-0.4-1.2-0.4
			h-1.6V10.7z M152.8,6.1c1.1,0,1.9,0.3,2.5,0.8c0.6,0.6,0.9,1.3,0.9,2.2c0,0.9-0.3,1.6-0.9,2.2c-0.6,0.5-1.5,0.8-2.5,0.8h-1.6v2.1
			l1,0.2v1.1h-3.9v-1.1l1-0.2V7.5l-1-0.2V6.1h1H152.8z"/>
		<path class="st1" d="M163.9,9.1h-1.4l-0.2-1.3c-0.2-0.1-0.4-0.2-0.7-0.3c-0.3-0.1-0.6-0.1-1-0.1c-0.5,0-0.9,0.1-1.2,0.3
			c-0.3,0.2-0.4,0.5-0.4,0.8c0,0.3,0.1,0.6,0.4,0.8c0.3,0.2,0.8,0.4,1.5,0.6c1,0.3,1.8,0.7,2.4,1.1c0.5,0.5,0.8,1.1,0.8,1.9
			c0,0.8-0.3,1.4-1,1.9c-0.6,0.5-1.5,0.7-2.5,0.7c-0.7,0-1.4-0.1-2-0.4c-0.6-0.2-1.1-0.6-1.5-1v-2h1.5l0.2,1.3
			c0.2,0.2,0.4,0.3,0.8,0.4c0.3,0.1,0.7,0.2,1.1,0.2c0.5,0,0.9-0.1,1.2-0.3s0.4-0.5,0.4-0.8c0-0.4-0.1-0.6-0.4-0.9
			c-0.3-0.2-0.7-0.4-1.3-0.6c-1.1-0.3-2-0.7-2.5-1.1c-0.6-0.4-0.9-1-0.9-1.8s0.3-1.4,1-1.9c0.6-0.5,1.5-0.7,2.4-0.7
			c0.7,0,1.4,0.1,2,0.3c0.6,0.2,1.1,0.5,1.5,0.9v2H163.9z"/>
	</g>
</g>
<g>
	<path class="st0" d="M50.7,19.5h8.8c2.3,0,4,0.4,5.1,1.3c1.1,0.8,1.6,2.1,1.6,3.9c0,1.2-0.2,2.1-0.6,2.7c-0.4,0.7-1.1,1.1-2,1.3
		l0,0c1.2,0.2,2,0.7,2.5,1.5s0.8,1.8,0.8,3.2c0,1.9-0.6,3.3-1.7,4.2c-1.2,0.9-3,1.4-5.4,1.4h-9V19.5H50.7z M58.5,27
		c0.6,0,1-0.1,1.2-0.3c0.3-0.2,0.4-0.6,0.4-1c0-0.5-0.1-0.8-0.4-1.1c-0.3-0.2-0.7-0.3-1.3-0.3h-1.9V27H58.5z M59.2,34.3
		c1.2,0,1.7-0.5,1.7-1.5c0-1-0.6-1.6-1.8-1.6h-2.5v3.1H59.2z"/>
	<path class="st0" d="M71.3,37.3c-1.4-1.4-2.2-3.5-2.2-6.4V19.5h6v11.6c0,1.1,0.2,1.9,0.7,2.4s1.2,0.8,2.2,0.8s1.7-0.3,2.2-0.8
		s0.7-1.3,0.7-2.4V19.5h5.9v11.4c0,2.9-0.7,5-2.1,6.4s-3.7,2-6.7,2S72.8,38.7,71.3,37.3z"/>
	<path class="st0" d="M91,32.7c0.8,0.5,1.9,0.9,3.1,1.2c1.3,0.3,2.5,0.5,3.6,0.5c0.8,0,1.3-0.1,1.6-0.2c0.3-0.2,0.5-0.5,0.5-0.9
		s-0.1-0.7-0.4-0.8s-0.8-0.3-1.6-0.4l-0.9-0.2c-1.9-0.4-3.4-0.8-4.5-1.3s-2-1.2-2.5-1.9c-0.5-0.8-0.8-1.7-0.8-2.8
		c0-2.3,0.6-3.9,1.9-5s3.3-1.6,6.1-1.6c1.5,0,3,0.2,4.4,0.6s2.6,1,3.7,1.6l-2.3,4.2c-0.8-0.4-1.7-0.8-2.8-1C99,24.4,98,24.2,97,24.2
		c-0.7,0-1.2,0.1-1.5,0.2c-0.3,0.2-0.4,0.4-0.4,0.8c0,0.3,0.1,0.5,0.2,0.7c0.2,0.2,0.4,0.3,0.7,0.3c0.3,0.1,0.8,0.2,1.5,0.3
		c2,0.3,3.6,0.7,4.8,1.2c1.2,0.5,2.1,1.1,2.6,1.9c0.6,0.8,0.8,1.7,0.8,2.9c0,2.3-0.6,4-1.9,5.1c-1.2,1.1-3.3,1.6-6.1,1.6
		c-1.7,0-3.4-0.2-4.9-0.6c-1.6-0.4-2.9-1-4-1.9L91,32.7z"/>
	<path class="st0" d="M114.3,39h-5.9V19.5h5.9V39z"/>
	<path class="st0" d="M131.1,39l-7.2-9.6V39H118V19.5h5.5l7.2,9.7v-9.7h5.9V39H131.1z"/>
	<path class="st0" d="M146.2,24.3v2.6h8.5v4.8h-8.5v2.6h9.6V39h-15.5V19.5h15.5v4.8H146.2z"/>
	<path class="st0" d="M160.1,32.7c0.8,0.5,1.9,0.9,3.1,1.2c1.3,0.3,2.5,0.5,3.6,0.5c0.8,0,1.3-0.1,1.6-0.2c0.3-0.2,0.5-0.5,0.5-0.9
		s-0.1-0.7-0.4-0.8s-0.8-0.3-1.6-0.4l-0.9-0.2c-1.9-0.4-3.4-0.8-4.5-1.3s-2-1.2-2.5-1.9c-0.5-0.8-0.8-1.7-0.8-2.8
		c0-2.3,0.6-3.9,1.9-5c1.3-1.1,3.3-1.6,6.1-1.6c1.5,0,3,0.2,4.4,0.6s2.6,1,3.7,1.6l-2.3,4.2c-0.8-0.4-1.7-0.8-2.8-1
		s-2.1-0.4-3.1-0.4c-0.7,0-1.2,0.1-1.5,0.2c-0.3,0.2-0.4,0.4-0.4,0.8c0,0.3,0.1,0.5,0.2,0.7c0.2,0.2,0.4,0.3,0.7,0.3
		c0.3,0.1,0.8,0.2,1.5,0.3c2,0.3,3.6,0.7,4.8,1.2s2.1,1.1,2.6,1.9c0.6,0.8,0.8,1.7,0.8,2.9c0,2.3-0.6,4-1.9,5.1
		c-1.2,1.1-3.3,1.6-6.1,1.6c-1.7,0-3.4-0.2-4.9-0.6c-1.6-0.4-2.9-1-4-1.9L160.1,32.7z"/>
	<path class="st0" d="M178.6,32.7c0.8,0.5,1.9,0.9,3.1,1.2c1.3,0.3,2.5,0.5,3.6,0.5c0.8,0,1.3-0.1,1.6-0.2c0.3-0.2,0.5-0.5,0.5-0.9
		s-0.1-0.7-0.4-0.8s-0.8-0.3-1.6-0.4l-0.9-0.2c-1.9-0.4-3.4-0.8-4.5-1.3s-2-1.2-2.5-1.9c-0.5-0.8-0.8-1.7-0.8-2.8
		c0-2.3,0.6-3.9,1.9-5c1.3-1.1,3.3-1.6,6.1-1.6c1.5,0,3,0.2,4.4,0.6s2.6,1,3.7,1.6l-2.3,4.2c-0.8-0.4-1.7-0.8-2.8-1
		s-2.1-0.4-3.1-0.4c-0.7,0-1.2,0.1-1.5,0.2c-0.3,0.2-0.4,0.4-0.4,0.8c0,0.3,0.1,0.5,0.2,0.7c0.2,0.2,0.4,0.3,0.7,0.3
		c0.3,0.1,0.8,0.2,1.5,0.3c2,0.3,3.6,0.7,4.8,1.2s2.1,1.1,2.6,1.9c0.6,0.8,0.8,1.7,0.8,2.9c0,2.3-0.6,4-1.9,5.1
		c-1.2,1.1-3.3,1.6-6.1,1.6c-1.7,0-3.4-0.2-4.9-0.6c-1.6-0.4-2.9-1-4-1.9L178.6,32.7z"/>
</g>
<g>
	<path class="st1" d="M90.4,51.7v2.6h-8.3V43.7h3.2v8H90.4z"/>
	<path class="st1" d="M94.5,54.2h-3.2V43.7h3.2V54.2z"/>
	<path class="st1" d="M97.2,50.8c0.5,0.3,1,0.5,1.7,0.7s1.3,0.3,1.9,0.3c0.4,0,0.7,0,0.9-0.1c0.2-0.1,0.3-0.3,0.3-0.5
		s-0.1-0.4-0.2-0.4c-0.1-0.1-0.4-0.1-0.8-0.2l-0.5-0.1c-1-0.2-1.8-0.4-2.4-0.7s-1.1-0.6-1.4-1s-0.4-0.9-0.4-1.5c0-1.2,0.3-2.1,1-2.7
		c0.7-0.6,1.8-0.9,3.3-0.9c0.8,0,1.6,0.1,2.4,0.3s1.4,0.5,2,0.9l-1.3,2.3c-0.4-0.2-0.9-0.4-1.5-0.6c-0.6-0.1-1.2-0.2-1.7-0.2
		c-0.4,0-0.6,0-0.8,0.1c-0.2,0.1-0.2,0.2-0.2,0.4s0,0.3,0.1,0.4c0.1,0.1,0.2,0.1,0.4,0.2c0.2,0,0.4,0.1,0.8,0.2
		c1.1,0.2,2,0.4,2.6,0.6s1.1,0.6,1.4,1s0.5,0.9,0.5,1.6c0,1.3-0.3,2.2-1,2.8s-1.8,0.9-3.3,0.9c-0.9,0-1.8-0.1-2.7-0.3
		c-0.8-0.2-1.6-0.6-2.2-1L97.2,50.8z"/>
	<path class="st1" d="M114.2,46.3h-2.7v8h-3.2v-8h-2.7v-2.6h8.7v2.6H114.2z"/>
	<path class="st1" d="M118.5,54.2h-3.2V43.7h3.2V54.2z"/>
	<path class="st1" d="M127.5,54.2l-3.9-5.2v5.2h-3.2V43.7h3l3.9,5.2v-5.2h3.2v10.6h-3V54.2z"/>
	<path class="st1" d="M143.1,48.2c0,0.1,0,0.4,0,0.7c0,0.4,0,0.8-0.1,1.3c-0.1,0.7-0.3,1.4-0.7,2s-1,1.1-1.7,1.5s-1.8,0.6-3,0.6
		c-1.9,0-3.3-0.5-4.2-1.4c-1-0.9-1.4-2.3-1.4-4.1s0.5-3.1,1.4-4.1c1-0.9,2.4-1.4,4.2-1.4c1.3,0,2.4,0.2,3.2,0.7s1.5,1.2,1.9,2.1
		l-2.7,1.3c-0.2-0.5-0.5-0.8-0.9-1.1s-0.9-0.4-1.5-0.4c-0.8,0-1.4,0.2-1.8,0.7c-0.4,0.5-0.6,1.1-0.6,2c0,1,0.2,1.7,0.6,2.1
		c0.4,0.4,1.1,0.6,1.9,0.6c0.5,0,0.9-0.1,1.3-0.4c0.4-0.2,0.6-0.6,0.6-1H137v-2.2h6.1V48.2z"/>
	<path class="st1" d="M145.4,50.8c0.5,0.3,1,0.5,1.7,0.7s1.3,0.3,1.9,0.3c0.4,0,0.7,0,0.9-0.1s0.3-0.3,0.3-0.5s-0.1-0.4-0.2-0.4
		c-0.1-0.1-0.4-0.1-0.8-0.2l-0.5-0.1c-1-0.2-1.8-0.4-2.4-0.7c-0.6-0.3-1.1-0.6-1.4-1c-0.3-0.4-0.4-0.9-0.4-1.5c0-1.2,0.3-2.1,1-2.7
		c0.7-0.6,1.8-0.9,3.3-0.9c0.8,0,1.6,0.1,2.4,0.3c0.8,0.2,1.4,0.5,2,0.9l-1.3,2.3c-0.4-0.2-0.9-0.4-1.5-0.6
		c-0.6-0.1-1.2-0.2-1.7-0.2c-0.4,0-0.6,0-0.8,0.1s-0.2,0.2-0.2,0.4s0,0.3,0.1,0.4c0.1,0.1,0.2,0.1,0.4,0.2c0.2,0,0.4,0.1,0.8,0.2
		c1.1,0.2,2,0.4,2.6,0.6s1.1,0.6,1.4,1s0.5,0.9,0.5,1.6c0,1.3-0.3,2.2-1,2.8s-1.8,0.9-3.3,0.9c-0.9,0-1.8-0.1-2.7-0.3
		s-1.6-0.6-2.2-1L145.4,50.8z"/>
</g>
</svg>
