<?xml version="1.0" encoding="utf-8"?>
<!-- Generator: Adobe Illustrator 21.0.2, SVG Export Plug-In . SVG Version: 6.00 Build 0)  -->
<svg version="1.1" id="Layer_1" xmlns="http://www.w3.org/2000/svg" xmlns:xlink="http://www.w3.org/1999/xlink" x="0px" y="0px"
	 viewBox="0 0 24 24" style="enable-background:new 0 0 24 24;" xml:space="preserve">
<style type="text/css">
	.st0{fill:none;}
</style>
<path class="st0" d="M24,24.1H0v-24h24V24.1z"/>
<path d="M17.5,21H9.3c-1.8,0-3.2-1.4-3.2-3.2V10c0-0.8,0.3-1.5,0.8-2l7-7L15.1,2c0.4,0.4,0.8,0.9,1,1.4c0.2,0.4,0.2,0.8,0.2,1.2
	l-0.7,3.6H20c1.6,0,2.9,1.3,2.9,2.8v1.1c0,0.4-0.1,0.8-0.2,1.1l-2.7,6.2C19.4,20.4,18.4,21,17.5,21z M14,3.3L8.2,9.1
	C8,9.4,7.9,9.6,7.9,10v7.8c0,0.8,0.7,1.5,1.5,1.5h8.1c0.4,0,0.8-0.2,1-0.5l2.6-6.1c0.1-0.1,0.1-0.3,0.1-0.5v-1.1
	c0-0.6-0.5-1.2-1.1-1.2h-6.5l1.1-5.7l0-0.1C14.4,3.9,14.2,3.6,14,3.3z M4,21H1.1V8.3H4c1,0,1.9,0.8,1.9,1.8v9C5.9,20.1,5,21,4,21z
	 M2.9,19.3H4c0.1,0,0.1-0.1,0.1-0.2v-9C4.1,10,4.1,10,4,10H2.9V19.3z"/>
</svg>
