<?xml version="1.0" encoding="utf-8"?>
<!-- Generator: Adobe Illustrator 21.0.2, SVG Export Plug-In . SVG Version: 6.00 Build 0)  -->
<svg version="1.1" id="Layer_1" xmlns="http://www.w3.org/2000/svg" xmlns:xlink="http://www.w3.org/1999/xlink" x="0px" y="0px"
	 viewBox="0 0 50 35" style="enable-background:new 0 0 50 35;" xml:space="preserve">
<style type="text/css">
	.st0{fill:#BFBFBF;}
</style>
<path class="st0" d="M45.7,13.8H9.2V9.9c0-1.8,1.5-2.5,2.8-2.5c1.7,0,3,1.1,3,2.5h2.6c0-2.5-2.5-4.6-5.6-4.6s-5.6,2-5.6,4.6v3.8H4.5
	c-1,0-1.9,0.7-1.9,1.5V16h44.9v-0.8C47.5,14.4,46.7,13.8,45.7,13.8 M4.5,20.6c0,2.8,1.9,5.3,4.7,6.6l-2.4,1.9
	c-0.6,0.5-0.6,1.3,0,1.7c0.3,0.2,0.7,0.4,1.1,0.4c0.4,0,0.8-0.1,1.1-0.4l3.4-2.8c0.5,0.1,1,0.1,1.5,0.1h22.4c0.5,0,1,0,1.5-0.1
	l3.4,2.8c0.3,0.2,0.7,0.4,1.1,0.4c0.4,0,0.8-0.1,1.1-0.4c0.6-0.5,0.6-1.3,0-1.7L41,27.2c2.8-1.3,4.7-3.8,4.7-6.6v-3H4.5V20.6z"/>
<path class="st0" d="M161,20.2c0-0.8,0.8-1.4,1.8-1.4c1,0,1.8,0.6,1.8,1.4c0,0.8-0.8,1.4-1.8,1.4C161.8,21.6,161,20.9,161,20.2
	 M142.3,21.6c-1,0-1.8-0.6-1.8-1.4c0-0.8,0.8-1.4,1.8-1.4c1,0,1.8,0.6,1.8,1.4C144.1,20.9,143.3,21.6,142.3,21.6 M144.3,12.5h16.5
	l1.6,4.5h-19.8L144.3,12.5z M163.5,27.2c0.9,0,1.6-0.6,1.6-1.3v-1.3c0.9,0,1.6-0.6,1.6-1.3v-5.1c0-0.7-0.7-1.3-1.6-1.3h-0.2l-2.2-6
	c-0.1-0.3-0.4-0.4-0.7-0.4h-18.8c-0.3,0-0.6,0.2-0.7,0.4l-2.2,6H140c-0.9,0-1.6,0.6-1.6,1.3v5.1c0,0.7,0.7,1.3,1.6,1.3v1.3
	c0,0.7,0.7,1.3,1.6,1.3c0.9,0,1.6-0.6,1.6-1.3v-1.3h18.8v1.3C161.9,26.6,162.7,27.2,163.5,27.2 M152.5,2.9l15.7,6.7l1.6-1.9
	l-17.3-7.3l-17.3,7.3l1.6,1.9L152.5,2.9z M135.3,31h34.5v-2.6h-34.5V31z"/>
</svg>
