<?xml version="1.0" encoding="utf-8"?>
<!-- Generator: Adobe Illustrator 21.0.2, SVG Export Plug-In . SVG Version: 6.00 Build 0)  -->
<svg version="1.1" id="Layer_1" xmlns="http://www.w3.org/2000/svg" xmlns:xlink="http://www.w3.org/1999/xlink" x="0px" y="0px"
	 viewBox="0 0 50 35" style="enable-background:new 0 0 50 35;" xml:space="preserve">
<style type="text/css">
	.st0{fill:#BFBFBF;}
</style>
<path class="st0" d="M12.2,10c-2.1,0-3.7,1.4-3.7,3c0,1.7,1.7,3,3.7,3c2.1,0,3.7-1.4,3.7-3C15.9,11.3,14.2,10,12.2,10 M46.3,17.6
	h-2.3v12.2h3.7v-11C47.7,18.1,47,17.6,46.3,17.6 M39.3,11.5H17.8v13.7h24.3V13.8C42.1,12.5,40.8,11.5,39.3,11.5 M6.6,6.9
	c0-0.8-0.8-1.5-1.9-1.5S2.8,6.1,2.8,6.9v22.8h3.7v-6.1h9.3v-6.1H6.6V6.9z"/>
</svg>
