<?xml version="1.0" encoding="utf-8"?>
<!-- Generator: Adobe Illustrator 21.0.2, SVG Export Plug-In . SVG Version: 6.00 Build 0)  -->
<svg version="1.1" id="Layer_1" xmlns="http://www.w3.org/2000/svg" xmlns:xlink="http://www.w3.org/1999/xlink" x="0px" y="0px"
	 viewBox="0 0 50 35" style="enable-background:new 0 0 50 35;" xml:space="preserve">
<style type="text/css">
	.st0{fill:#BFBFBF;}
</style>
<path class="st0" d="M33.4,21.5c0-0.8,0.8-1.4,1.8-1.4c1,0,1.8,0.6,1.8,1.4c0,0.8-0.8,1.4-1.8,1.4C34.2,22.9,33.4,22.3,33.4,21.5
	 M14.8,22.9c-1,0-1.8-0.6-1.8-1.4c0-0.8,0.8-1.4,1.8-1.4c1,0,1.8,0.6,1.8,1.4C16.6,22.3,15.8,22.9,14.8,22.9 M16.8,13.8h16.5
	l1.6,4.5H15.1L16.8,13.8z M36,28.5c0.9,0,1.6-0.6,1.6-1.3V26c0.9,0,1.6-0.6,1.6-1.3v-5.1c0-0.7-0.7-1.3-1.6-1.3h-0.2l-2.2-6
	c-0.1-0.3-0.4-0.4-0.7-0.4H15.6c-0.3,0-0.6,0.2-0.7,0.4l-2.2,6h-0.2c-0.9,0-1.6,0.6-1.6,1.3v5.1c0,0.7,0.7,1.3,1.6,1.3v1.3
	c0,0.7,0.7,1.3,1.6,1.3c0.9,0,1.6-0.6,1.6-1.3V26h18.8v1.3C34.4,28,35.1,28.5,36,28.5 M25,4.3L40.7,11l1.6-1.9L25,1.7L7.7,9.1
	L9.3,11L25,4.3z M7.7,32.4h34.5v-2.6H7.7V32.4z"/>
</svg>
