<?xml version="1.0" encoding="utf-8"?>
<!-- Generator: Adobe Illustrator 21.0.2, SVG Export Plug-In . SVG Version: 6.00 Build 0)  -->
<svg version="1.1" id="Layer_1" xmlns="http://www.w3.org/2000/svg" xmlns:xlink="http://www.w3.org/1999/xlink" x="0px" y="0px"
	 viewBox="0 0 51 51" style="enable-background:new 0 0 51 51;" xml:space="preserve">
<style type="text/css">
	.st0{fill:#D8D9DA;}
	.st1{fill:#FFFFFF;}
	.st2{fill:#010101;}
</style>
<rect x="-53.9" y="54" class="st0" width="456.8" height="215.5"/>
<path class="st1" d="M47.6,12.5c-0.5-0.9-1.2-1.9-2.1-3.1c-0.4-0.5-1.1-1.4-2.3-2.6c-1-0.9-2-1.7-2.9-2.4C35.7,1.5,30.8,0,25.7,0
	h-0.3c-4.5,0-8.8,1.2-12.8,3.5C11.7,4,10.7,4.7,9.5,5.6C9,6,8.1,6.7,6.9,8c-0.9,1-1.7,2-2.4,2.9C1.5,15.4,0,20.2,0,25.4v0.3
	c0,4.5,1.2,8.8,3.5,12.8c0.5,0.9,1.2,1.9,2.1,3.1C6,42,6.7,42.9,8,44.1c1,0.9,2,1.7,2.9,2.4c4.5,3.1,9.3,4.5,14.5,4.5h0.3
	c4.5,0,8.8-1.2,12.8-3.5c0.9-0.5,1.9-1.2,3.1-2.1c0.5-0.4,1.4-1.1,2.6-2.3c0.9-1,1.7-2,2.4-2.9c3.1-4.5,4.5-9.3,4.5-14.5v-0.3
	C51,20.9,49.9,16.6,47.6,12.5z"/>
<g>
	<g>
		<path class="st1" d="M184.6-18.2h0.3c5.2,0,10,1.5,14.5,4.6c0.9,0.7,1.9,1.4,2.9,2.4c1.2,1.2,2,2,2.4,2.5c0.9,1.2,1.7,2.2,2.1,3.1
			c2.3,4,3.5,8.3,3.5,12.8v0.3c0,5.2-1.5,10-4.6,14.5c-0.7,0.9-1.4,1.9-2.4,2.9c-1.2,1.2-2,2-2.5,2.4c-1.2,0.9-2.2,1.7-3.1,2.1
			c-4,2.3-8.3,3.5-12.8,3.5h-0.3c-5.2,0-10-1.5-14.5-4.6c-0.9-0.7-1.9-1.4-2.9-2.4c-1.2-1.2-2-2-2.4-2.5c-0.9-1.2-1.7-2.2-2.1-3.1
			c-2.3-4-3.5-8.3-3.5-12.8V7.2c0-5.2,1.5-10,4.6-14.5c0.7-0.9,1.4-1.9,2.4-2.9c1.2-1.2,2-2,2.5-2.4c1.2-0.9,2.2-1.7,3.1-2.1
			C175.8-17,180.1-18.2,184.6-18.2z"/>
	</g>
	<path d="M179-3.5c-2.1,0-3.8,0.1-5,0.2c-0.7,0-1.2,0.1-1.4,0.2c-0.7,0.1-1.2,0.4-1.7,0.8c-0.3,0.2-0.6,0.5-0.8,0.7
		c-0.2,0.3-0.4,0.7-0.5,1.2c-0.2,0.4-0.3,1-0.5,1.7c-0.2,2-0.3,3.7-0.3,5.2v2.6c0,1.3,0.1,2.8,0.3,4.5c0,0.6,0.1,1,0.3,1.4
		c0.2,0.7,0.3,1.2,0.5,1.6c0.4,0.7,0.9,1.2,1.6,1.6c0.2,0.1,0.5,0.2,0.9,0.3c0.3,0,0.7,0.1,1.3,0.2c0.4,0.1,1.4,0.1,3,0.2
		c3.9,0.1,6.7,0.2,8.5,0.2c1.6,0,3.7,0,6.2-0.1c3.3-0.1,5.2-0.2,5.7-0.3c0.5-0.1,0.9-0.2,1.3-0.4c0.2-0.1,0.5-0.2,0.7-0.4
		c0.2-0.2,0.5-0.4,0.7-0.7c0.3-0.3,0.5-0.7,0.7-1.2c0.1-0.4,0.3-1,0.4-1.6c0.2-2,0.3-3.8,0.3-5.3V6.5c0-1.5-0.1-3.3-0.3-5.2
		c-0.1-0.7-0.3-1.2-0.4-1.5c-0.2-0.7-0.5-1.2-0.9-1.6c-0.3-0.3-0.5-0.5-0.7-0.5c-0.2-0.2-0.5-0.4-0.8-0.5c-0.2-0.1-0.5-0.2-0.9-0.3
		c-0.4-0.1-1.2-0.2-2.2-0.2c-3.3-0.1-6.6-0.2-10-0.2C183.1-3.6,181.2-3.6,179-3.5z"/>
	<path class="st1" d="M181.7,2.9c0,0,2.3,1.2,7,3.7c1,0.6,1.6,0.8,1.6,0.9l-1.4,0.7c0,0-2.5,1.3-7.3,3.8V2.9
		C181.6,2.9,181.7,2.9,181.7,2.9z"/>
</g>
<g>
	<g>
		<path class="st1" d="M25.4,131.7h0.3c5.2,0,10,1.5,14.5,4.6c0.9,0.7,1.9,1.4,2.9,2.4c1.2,1.2,2,2,2.4,2.5c0.9,1.2,1.7,2.2,2.1,3.1
			c2.3,4,3.5,8.3,3.5,12.8v0.3c0,5.2-1.5,10-4.6,14.5c-0.7,0.9-1.4,1.9-2.4,2.9c-1.2,1.2-2,2-2.5,2.4c-1.2,0.9-2.2,1.7-3.1,2.1
			c-4,2.3-8.3,3.5-12.8,3.5h-0.3c-5.2,0-10-1.5-14.5-4.6c-0.9-0.7-1.9-1.4-2.9-2.4c-1.2-1.2-2-2-2.4-2.5C4.7,172,4,171,3.5,170.1
			c-2.3-4-3.5-8.3-3.5-12.8V157c0-5.2,1.5-10,4.6-14.5c0.7-0.9,1.4-1.9,2.4-2.9c1.2-1.2,2-2,2.5-2.4c1.2-0.9,2.2-1.7,3.1-2.1
			C16.6,132.8,20.9,131.7,25.4,131.7z"/>
	</g>
	<path d="M12.8,150.3v15c0,1.2,0.2,2.1,0.6,2.7c0.1,0.3,0.4,0.7,0.9,1.3c1,0.9,2.2,1.4,3.5,1.4h15.8c1.4,0,2.6-0.5,3.6-1.5
		c0.9-0.9,1.4-2.2,1.4-3.7v-15.4c0-1.3-0.3-2.3-0.9-3.2c-0.5-0.7-1.1-1.1-1.6-1.4c-0.7-0.5-1.6-0.7-2.4-0.7H17.7
		c-1.5,0-2.8,0.6-3.8,1.8c-0.5,0.6-0.8,1.3-1,2.1C12.8,149.1,12.8,149.6,12.8,150.3z M19.1,155.1C19.1,155.1,19.1,155.1,19.1,155.1
		c-0.3,0.9-0.5,1.8-0.5,2.7c0,2,0.8,3.8,2.4,5.3c1.4,1.2,3,1.8,4.6,1.8h0.3c1.6,0,3.1-0.6,4.5-1.7c0.5-0.5,0.9-0.9,1.1-1.2
		c0.9-1.3,1.4-2.6,1.4-4v-0.2c0-0.8-0.2-1.7-0.5-2.6h3.8c0,0,0,0,0,0v10.7c0,0.8-0.4,1.4-1.2,2c-0.4,0.2-0.9,0.4-1.6,0.4H18.1
		c-0.8,0-1.3-0.1-1.7-0.4c-0.1,0-0.3-0.2-0.6-0.5c-0.3-0.5-0.5-1-0.5-1.5v-10.6l0,0H19.1z M25.5,153.2h0.3c1.2,0,2.3,0.5,3.3,1.6
		c0.7,0.9,1.1,1.9,1.1,3.1c0,1.1-0.4,2.1-1.2,3c-0.9,0.9-2.1,1.4-3.3,1.4c-1.3,0-2.5-0.5-3.4-1.6c-0.7-0.9-1.1-1.9-1.1-2.9
		c0-1.2,0.4-2.2,1.3-3.2C23.4,153.7,24.4,153.2,25.5,153.2z M35.6,147.8L35.6,147.8l0,4.3c0,0,0,0,0,0H35c-0.8,0-2.1,0-3.8,0v0v-4.3
		h0C31.8,147.8,33.2,147.8,35.6,147.8z"/>
</g>
<g>
	<g>
		<path class="st1" d="M-20.1,117.5h0.3c5.2,0,10,1.5,14.5,4.6c0.9,0.7,1.9,1.4,2.9,2.4c1.2,1.2,2,2,2.4,2.5
			c0.9,1.2,1.7,2.2,2.1,3.1c2.3,4,3.5,8.3,3.5,12.8v0.3c0,5.2-1.5,10-4.6,14.5c-0.7,0.9-1.4,1.9-2.4,2.9c-1.2,1.2-2,2-2.5,2.4
			c-1.2,0.9-2.2,1.7-3.1,2.1c-4,2.3-8.3,3.5-12.8,3.5h-0.3c-5.2,0-10-1.5-14.5-4.6c-0.9-0.7-1.9-1.4-2.9-2.4c-1.2-1.2-2-2-2.4-2.5
			c-0.9-1.2-1.7-2.2-2.1-3.1c-2.3-4-3.5-8.3-3.5-12.8v-0.3c0-5.2,1.5-10,4.6-14.5c0.7-0.9,1.4-1.9,2.4-2.9c1.2-1.2,2-2,2.5-2.4
			c1.2-0.9,2.2-1.7,3.1-2.1C-28.8,118.6-24.6,117.5-20.1,117.5z"/>
	</g>
	<path d="M-17.7,127.6c0,0-0.5,0.2-1.4,0.5c-1.4,0.6-2.4,1.4-3.1,2.6c-0.7,1.2-1.1,2.6-1.1,4.2v4.2h-4.8v0v5.5v0h4.8V159h0h5.7h0
		v-14.3h4.8c0-0.2,0.3-2,0.7-5.6c0,0,0,0,0,0h-5.5v-3.1c0-0.9,0-1.4,0.1-1.6c0-0.1,0.1-0.3,0.2-0.5c0.2-0.4,0.6-0.6,1.1-0.8
		c0.3-0.1,0.9-0.2,1.8-0.2h2.6v0v-4.9v0c-1.3-0.1-2.7-0.2-4.2-0.2h-0.1C-17.2,127.6-17.7,127.6-17.7,127.6z"/>
</g>
<path class="st2" d="M25.6,8.4c-6.9,0-12.5,5.6-12.5,12.5c0,9.4,12.5,23.2,12.5,23.2s12.5-13.8,12.5-23.2C38.1,14,32.5,8.4,25.6,8.4
	z M25.6,25.4c-2.5,0-4.5-2-4.5-4.5s2-4.5,4.5-4.5s4.5,2,4.5,4.5S28.1,25.4,25.6,25.4z"/>
</svg>
