<?xml version="1.0" encoding="utf-8"?>
<!-- Generator: Adobe Illustrator 21.0.2, SVG Export Plug-In . SVG Version: 6.00 Build 0)  -->
<svg version="1.1" id="Layer_1" xmlns="http://www.w3.org/2000/svg" xmlns:xlink="http://www.w3.org/1999/xlink" x="0px" y="0px"
	 viewBox="0 0 51 51" style="enable-background:new 0 0 51 51;" xml:space="preserve">
<style type="text/css">
	.st0{fill:#FFFFFF;}
</style>
<g>
	<g>
		<path class="st0" d="M25.4,0h0.3c5.2,0,10,1.5,14.5,4.6C41.1,5.2,42,6,43.1,7c1.2,1.2,2,2,2.4,2.5c0.9,1.2,1.7,2.2,2.1,3.1
			c2.3,4,3.5,8.3,3.5,12.8v0.3c0,5.2-1.5,10-4.6,14.5C45.8,41.1,45,42,44.1,43c-1.2,1.2-2,2-2.5,2.4c-1.2,0.9-2.2,1.7-3.1,2.1
			c-4,2.3-8.3,3.5-12.8,3.5h-0.3c-5.2,0-10-1.5-14.5-4.6C10,45.8,9,45,8,44.1c-1.2-1.2-2-2-2.4-2.5c-0.9-1.2-1.7-2.2-2.1-3.1
			C1.2,34.4,0,30.1,0,25.7v-0.3c0-5.2,1.5-10,4.6-14.5C5.2,9.9,6,9,7,8c1.2-1.2,2-2,2.5-2.4c1.2-0.9,2.2-1.7,3.1-2.1
			C16.6,1.2,20.9,0,25.4,0z"/>
	</g>
</g>
<path d="M8.7,25.8c0-3.6,2.9-6.5,6.5-6.5h8.4v-4h-8.4c-5.8,0-10.4,4.7-10.4,10.4s4.7,10.4,10.4,10.4h8.4v-4h-8.4
	C11.6,32.3,8.7,29.4,8.7,25.8z M17.2,27.9h16.7v-4.2H17.2V27.9z M36,15.4h-8.4v4H36c3.6,0,6.5,2.9,6.5,6.5s-2.9,6.5-6.5,6.5h-8.4v4
	H36c5.8,0,10.4-4.7,10.4-10.4S41.8,15.4,36,15.4z"/>
</svg>
