<?xml version="1.0" encoding="utf-8"?>
<!-- Generator: Adobe Illustrator 21.0.2, SVG Export Plug-In . SVG Version: 6.00 Build 0)  -->
<svg version="1.1" id="Layer_1" xmlns="http://www.w3.org/2000/svg" xmlns:xlink="http://www.w3.org/1999/xlink" x="0px" y="0px"
	 viewBox="0 0 51 51" style="enable-background:new 0 0 51 51;" xml:space="preserve">
<style type="text/css">
	.st0{fill:#D8D9DA;}
	.st1{fill:#FFFFFF;}
	.st2{fill:#010101;}
</style>
<rect x="-53.9" y="54" class="st0" width="456.8" height="215.5"/>
<g>
	<path class="st1" d="M270.1,144.3c-0.5-0.9-1.2-1.9-2.2-3.1c-0.4-0.5-1.1-1.4-2.4-2.6c-1-0.9-2-1.8-2.9-2.4
		c-4.5-3-9.4-4.6-14.6-4.6h-0.3c-4.5,0-8.9,1.2-12.9,3.5c-0.8,0.5-1.9,1.2-3.1,2.2c-0.5,0.4-1.4,1.1-2.6,2.4c-0.9,1-1.8,2-2.4,2.9
		c-3,4.5-4.6,9.4-4.6,14.6v0.3c0,4.5,1.2,8.9,3.5,12.9c0.5,0.9,1.2,1.9,2.2,3.1c0.4,0.5,1.1,1.4,2.4,2.6c1,0.9,2,1.8,2.9,2.4
		c4.5,3.1,9.4,4.6,14.6,4.6h0.3c4.5,0,8.9-1.2,12.9-3.5c0.9-0.5,1.9-1.2,3.1-2.2c0.5-0.4,1.4-1.1,2.6-2.4c0.9-1,1.8-2,2.4-2.9
		c3.1-4.5,4.6-9.4,4.6-14.6v-0.3C273.6,152.7,272.4,148.5,270.1,144.3z"/>
	<path class="st2" d="M230.6,169.8h34.5V146h-34.5C230.6,146,230.6,169.8,230.6,169.8z M233.5,166.9v-15.6l14.3,13.9l14.4-14v15.7
		C262.2,166.9,233.5,166.9,233.5,166.9z M235.7,148.9h24.2l-12.1,11.7L235.7,148.9z"/>
</g>
<g>
	<g>
		<path class="st1" d="M178.7,131.7h0.3c5.2,0,10.1,1.5,14.6,4.6c0.9,0.7,1.9,1.5,2.9,2.4c1.2,1.2,2,2,2.4,2.6
			c0.9,1.2,1.7,2.3,2.2,3.1c2.3,4.1,3.5,8.4,3.5,12.9v0.3c0,5.2-1.5,10.1-4.6,14.6c-0.7,0.9-1.5,1.9-2.4,2.9c-1.2,1.2-2,2-2.6,2.4
			c-1.2,0.9-2.3,1.7-3.1,2.2c-4.1,2.3-8.4,3.5-12.9,3.5h-0.3c-5.2,0-10.1-1.5-14.6-4.6c-0.9-0.7-1.9-1.5-2.9-2.4
			c-1.2-1.2-2-2-2.4-2.6c-0.9-1.2-1.7-2.3-2.2-3.1c-2.3-4.1-3.5-8.4-3.5-12.9v-0.3c0-5.2,1.5-10.1,4.6-14.6c0.7-0.9,1.5-1.9,2.4-2.9
			c1.2-1.2,2-2,2.6-2.4c1.2-0.9,2.3-1.7,3.1-2.2C169.9,132.8,174.2,131.7,178.7,131.7z"/>
	</g>
	<path d="M173,146.5c-2.1,0-3.8,0.1-5,0.2c-0.7,0-1.2,0.1-1.4,0.2c-0.7,0.1-1.2,0.4-1.8,0.8c-0.3,0.2-0.6,0.5-0.8,0.7
		c-0.2,0.3-0.4,0.7-0.5,1.2c-0.2,0.4-0.3,1-0.5,1.7c-0.2,2-0.3,3.7-0.3,5.3v2.7c0,1.3,0.1,2.8,0.3,4.5c0,0.6,0.1,1,0.3,1.5
		c0.2,0.7,0.3,1.2,0.5,1.6c0.4,0.7,0.9,1.2,1.6,1.6c0.2,0.1,0.5,0.2,0.9,0.3c0.3,0,0.7,0.1,1.3,0.2c0.4,0.1,1.4,0.1,3.1,0.2
		c3.9,0.1,6.8,0.2,8.6,0.2c1.6,0,3.7,0,6.3-0.1c3.4-0.1,5.3-0.2,5.8-0.3c0.5-0.1,0.9-0.2,1.3-0.4c0.2-0.1,0.5-0.2,0.7-0.4
		c0.2-0.2,0.5-0.4,0.7-0.7c0.3-0.3,0.5-0.8,0.7-1.2c0.1-0.4,0.3-1,0.4-1.6c0.2-2,0.3-3.8,0.3-5.4v-2.7c0-1.5-0.1-3.3-0.3-5.3
		c-0.1-0.7-0.3-1.2-0.4-1.5c-0.2-0.7-0.5-1.2-0.9-1.6c-0.3-0.3-0.5-0.5-0.7-0.5c-0.2-0.2-0.5-0.4-0.8-0.5c-0.2-0.1-0.5-0.2-0.9-0.3
		c-0.4-0.1-1.2-0.2-2.3-0.2c-3.3-0.1-6.7-0.2-10.1-0.2C177.3,146.3,175.3,146.4,173,146.5z"/>
	<path class="st1" d="M175.8,153c0,0,2.3,1.2,7,3.7c1,0.6,1.6,0.9,1.6,0.9l-1.5,0.7c0,0-2.5,1.3-7.4,3.8v-9.2
		C175.7,152.9,175.8,153,175.8,153z"/>
</g>
<g>
	<g>
		<path class="st1" d="M106.5,131.7h0.3c5.2,0,10.1,1.5,14.6,4.6c0.9,0.7,1.9,1.5,2.9,2.4c1.2,1.2,2,2,2.4,2.6
			c0.9,1.2,1.7,2.3,2.2,3.1c2.3,4.1,3.5,8.4,3.5,12.9v0.3c0,5.2-1.5,10.1-4.6,14.6c-0.7,0.9-1.5,1.9-2.4,2.9c-1.2,1.2-2,2-2.6,2.4
			c-1.2,0.9-2.3,1.7-3.1,2.2c-4.1,2.3-8.4,3.5-12.9,3.5h-0.3c-5.2,0-10.1-1.5-14.6-4.6c-0.9-0.7-1.9-1.5-2.9-2.4
			c-1.2-1.2-2-2-2.4-2.6c-0.9-1.2-1.7-2.3-2.2-3.1c-2.3-4.1-3.5-8.4-3.5-12.9v-0.3c0-5.2,1.5-10.1,4.6-14.6c0.7-0.9,1.5-1.9,2.4-2.9
			c1.2-1.2,2-2,2.6-2.4c1.2-0.9,2.3-1.7,3.1-2.2C97.7,132.8,102,131.7,106.5,131.7z"/>
	</g>
	<path d="M93.8,150.4v15.1c0,1.2,0.2,2.1,0.6,2.7c0.1,0.3,0.4,0.8,0.9,1.3c1,0.9,2.2,1.4,3.5,1.4h15.9c1.4,0,2.6-0.5,3.7-1.5
		c0.9-0.9,1.4-2.2,1.4-3.8v-15.5c0-1.3-0.3-2.3-0.9-3.2c-0.5-0.7-1.1-1.2-1.6-1.4c-0.8-0.5-1.6-0.7-2.4-0.7h-16
		c-1.5,0-2.8,0.6-3.9,1.9c-0.5,0.6-0.8,1.3-1,2.2C93.8,149.2,93.8,149.7,93.8,150.4z M100.2,155.3
		C100.2,155.3,100.2,155.3,100.2,155.3c-0.3,0.9-0.5,1.8-0.5,2.7c0,2,0.8,3.8,2.4,5.3c1.5,1.2,3,1.8,4.6,1.8h0.3
		c1.6,0,3.1-0.6,4.5-1.8c0.5-0.5,0.9-0.9,1.1-1.2c0.9-1.3,1.4-2.6,1.4-4.1v-0.2c0-0.8-0.2-1.7-0.5-2.6h3.8c0,0,0,0,0,0V166
		c0,0.8-0.4,1.5-1.2,2c-0.4,0.2-0.9,0.4-1.6,0.4H99.2c-0.8,0-1.4-0.1-1.7-0.4c-0.1,0-0.3-0.2-0.6-0.5c-0.3-0.5-0.5-1-0.5-1.5v-10.7
		l0,0H100.2z M106.7,153.4h0.3c1.2,0,2.3,0.5,3.3,1.6c0.8,0.9,1.1,1.9,1.1,3.1c0,1.1-0.4,2.1-1.2,3.1c-0.9,0.9-2.1,1.4-3.4,1.4
		c-1.3,0-2.5-0.5-3.5-1.6c-0.7-0.9-1.1-1.9-1.1-3c0-1.2,0.4-2.2,1.3-3.2C104.5,153.8,105.6,153.4,106.7,153.4z M116.8,147.9
		L116.8,147.9l0,4.4c0,0,0,0,0,0h-0.5c-0.8,0-2.1,0-3.8,0v0V148h0C113,148,114.4,147.9,116.8,147.9z"/>
</g>
<g>
	<g>
		<path class="st1" d="M25.4,0h0.3c5.2,0,10,1.5,14.5,4.6C41.1,5.2,42,6,43.1,7c1.2,1.2,2,2,2.4,2.5c0.9,1.2,1.7,2.2,2.1,3.1
			c2.3,4,3.5,8.3,3.5,12.8v0.3c0,5.2-1.5,10-4.6,14.5c-0.7,0.9-1.4,1.9-2.4,2.9c-1.2,1.2-2,2-2.5,2.4c-1.2,0.9-2.2,1.7-3.1,2.1
			c-4,2.3-8.3,3.5-12.8,3.5h-0.3c-5.2,0-10-1.5-14.5-4.6C10,45.8,9,45,8,44.1c-1.2-1.2-2-2-2.4-2.5c-0.9-1.2-1.7-2.2-2.1-3.1
			C1.2,34.4,0,30.2,0,25.7v-0.3c0-5.2,1.5-10,4.6-14.5C5.2,10,6,9,7,8c1.2-1.2,2-2,2.5-2.4c1.2-0.9,2.2-1.7,3.1-2.1
			C16.6,1.2,20.9,0,25.4,0z"/>
	</g>
	<path d="M27.7,10.1c0,0-0.5,0.2-1.4,0.5c-1.4,0.6-2.4,1.4-3.1,2.6c-0.7,1.2-1.1,2.6-1.1,4.2v4.2h-4.8v0v5.5v0h4.8v14.3h0h5.7h0
		V27.2h4.8c0-0.2,0.3-2,0.7-5.6c0,0,0,0,0,0H28v-3.1c0-0.9,0-1.4,0.1-1.6c0-0.1,0.1-0.3,0.2-0.5c0.2-0.4,0.6-0.6,1.1-0.8
		c0.3-0.1,0.9-0.2,1.8-0.2h2.6v0v-4.9v0c-1.3-0.1-2.7-0.2-4.2-0.2h-0.1C28.3,10.1,27.7,10.1,27.7,10.1z"/>
</g>
</svg>
