<?xml version="1.0" encoding="utf-8"?>
<!-- Generator: Adobe Illustrator 21.0.2, SVG Export Plug-In . SVG Version: 6.00 Build 0)  -->
<svg version="1.1" id="Layer_1" xmlns="http://www.w3.org/2000/svg" xmlns:xlink="http://www.w3.org/1999/xlink" x="0px" y="0px"
	 viewBox="0 0 51 51" style="enable-background:new 0 0 51 51;" xml:space="preserve">
<style type="text/css">
	.st0{fill:#FFFFFF;}
</style>
<g>
	<g>
		<path class="st0" d="M25.4,0h0.3c5.2,0,10,1.5,14.5,4.6C41.1,5.2,42,6,43.1,7c1.2,1.2,2,2,2.4,2.5c0.9,1.2,1.7,2.2,2.1,3.1
			c2.3,4,3.5,8.3,3.5,12.8v0.3c0,5.2-1.5,10-4.6,14.5c-0.7,0.9-1.4,1.9-2.4,2.9c-1.2,1.2-2,2-2.5,2.4c-1.2,0.9-2.2,1.7-3.1,2.1
			c-4,2.3-8.3,3.5-12.8,3.5h-0.3c-5.2,0-10-1.5-14.5-4.6C10,45.8,9,45,8,44.1c-1.2-1.2-2-2-2.4-2.5c-0.9-1.2-1.7-2.2-2.1-3.1
			C1.2,34.4,0,30.2,0,25.7v-0.3c0-5.2,1.5-10,4.6-14.5C5.2,10,6,9,7,8c1.2-1.2,2-2,2.5-2.4c1.2-0.9,2.2-1.7,3.1-2.1
			C16.6,1.2,20.9,0,25.4,0z"/>
	</g>
</g>
<path d="M25.5,19.9v0.1c0,0.4,0,0.8,0.2,1.3h0c-0.4,0-1.4-0.1-2.7-0.3c-1.1-0.2-2.1-0.5-3-0.9c-0.9-0.4-1.9-0.9-3-1.6
	c-0.8-0.5-1.7-1.2-2.7-2.1c-0.5-0.5-1-1-1.4-1.5c-0.5,1-0.8,2-0.8,3v0.2c0,1.3,0.5,2.6,1.5,3.9c0.5,0.5,0.9,0.9,1.2,1.1v0
	c-0.8,0-1.8-0.2-2.7-0.8v0.2c0,1.6,0.6,3.1,1.9,4.3c0.8,0.7,1.5,1.2,2.2,1.4c0.4,0.1,0.7,0.2,0.8,0.2c0,0-0.2,0.1-0.7,0.2
	c-0.3,0-0.5,0-0.6,0h-0.1c0,0-0.1,0-0.1,0h-0.1h-0.1c-0.3,0-0.6,0-1-0.1c0.5,1.4,1.4,2.5,2.5,3.3c1.1,0.7,2.1,1,3.2,1
	c-0.6,0.5-1.2,0.9-1.8,1.2c-1.9,1-3.8,1.5-5.7,1.5h-0.4c-0.4,0-0.8,0-1.3,0c1.2,0.8,2.4,1.4,3.8,1.9c1.9,0.6,3.8,1,5.7,1
	c3.1,0,6-0.7,8.7-2.2c0.9-0.4,1.8-1.1,2.8-1.9c0.9-0.9,1.6-1.5,1.9-1.9c0.8-1,1.5-2,2.1-3.1c0.4-0.7,0.8-1.6,1.1-2.5
	c0.7-2,1-3.8,1-5.6v-0.9V20c0.3-0.2,0.9-0.7,1.8-1.5c0.6-0.6,1-1.2,1.4-1.7h0c-0.8,0.3-1.6,0.6-2.4,0.8c-0.6,0.1-1,0.1-1,0.1v0
	c0.2-0.1,0.7-0.4,1.3-1c0.7-0.8,1.2-1.6,1.4-2.3c-0.8,0.5-1.7,0.9-2.5,1.1c-0.8,0.2-1.3,0.3-1.4,0.3c-0.6-0.5-1-0.9-1.3-1
	c-1-0.6-2-0.9-3.2-0.9h0c-1.7,0-3.1,0.6-4.3,1.8C26.2,16.9,25.5,18.3,25.5,19.9z"/>
</svg>
