<?xml version="1.0" encoding="utf-8"?>
<!-- Generator: Adobe Illustrator 24.3.0, SVG Export Plug-In . SVG Version: 6.00 Build 0)  -->
<svg version="1.1" id="Layer_1" xmlns="http://www.w3.org/2000/svg" xmlns:xlink="http://www.w3.org/1999/xlink" x="0px" y="0px"
	 viewBox="0 0 113.4 113.4" style="enable-background:new 0 0 113.4 113.4;" xml:space="preserve">
<style type="text/css">
	.st0{fill:#FFFFFF;}
</style>
<path class="st0" d="M105.7,27.9c-1-1.9-2.6-4.2-4.8-6.8c-0.8-1.1-2.5-3.1-5.2-5.7c-2.3-2-4.4-3.9-6.5-5.3C79.3,3.4,68.5,0,57,0
	h-0.7c-10,0-19.5,2.6-28.5,7.7c-1.8,1.1-4.1,2.7-6.8,4.8C20,13.3,18,15,15.4,17.7c-2,2.3-3.9,4.4-5.3,6.5C3.4,34.1,0,44.9,0,56.4V57
	c0,10,2.6,19.5,7.7,28.5c1,1.9,2.6,4.2,4.8,6.8c0.8,1.1,2.5,3.1,5.2,5.7c2.3,2,4.4,3.9,6.5,5.3c10,6.8,20.7,10.1,32.2,10.1H57
	c10,0,19.5-2.6,28.5-7.7c1.9-1,4.2-2.6,6.8-4.8c1.1-0.8,3.1-2.5,5.7-5.2c2-2.3,3.9-4.4,5.3-6.5c6.8-10,10.1-20.7,10.1-32.2v-0.7
	C113.4,46.4,110.8,37,105.7,27.9z"/>
<g>
	<path d="M99.9,31.3c-0.9-1.7-2.3-3.7-4.2-6c-0.7-1-2.2-2.7-4.6-5c-2-1.8-3.9-3.4-5.7-4.7C76.6,9.7,67.1,6.7,57,6.7h-0.6
		c-8.8,0-17.2,2.3-25.1,6.8c-1.6,1-3.6,2.4-6,4.2c-1,0.7-2.7,2.2-5,4.6c-1.8,2-3.4,3.9-4.7,5.7c-5.9,8.8-8.9,18.3-8.9,28.4V57
		c0,8.8,2.3,17.2,6.8,25.1c0.9,1.7,2.3,3.7,4.2,6c0.7,1,2.2,2.7,4.6,5c2,1.8,3.9,3.4,5.7,4.7c8.8,6,18.3,8.9,28.4,8.9H57
		c8.8,0,17.2-2.3,25.1-6.8c1.7-0.9,3.7-2.3,6-4.2c1-0.7,2.7-2.2,5-4.6c1.8-2,3.4-3.9,4.7-5.7c6-8.8,8.9-18.3,8.9-28.4v-0.6
		C106.7,47.6,104.4,39.3,99.9,31.3z M101.4,57c0,9-2.7,17.5-8,25.4c-1.1,1.6-2.5,3.2-4.2,5c-2,2.1-3.5,3.5-4.5,4.1
		c-2.1,1.7-3.9,2.9-5.4,3.8c-7.1,4.1-14.5,6.1-22.4,6.1h-0.6c-9,0-17.5-2.7-25.4-8c-1.6-1.1-3.2-2.5-5-4.2c-2.1-2-3.5-3.5-4.1-4.5
		c-1.7-2.1-2.9-3.9-3.8-5.4c-4.1-7.1-6.1-14.5-6.1-22.4v-0.6c0-9,2.7-17.5,8-25.4c1.1-1.6,2.5-3.2,4.2-5c2-2.1,3.5-3.5,4.5-4.1
		c2.1-1.7,3.9-2.9,5.4-3.8c7.1-4.1,14.5-6.1,22.4-6.1H57c9,0,17.5,2.7,25.4,8c1.6,1.1,3.2,2.5,5,4.2c2.1,2,3.5,3.5,4.1,4.5
		c1.7,2.1,2.9,3.9,3.8,5.4c4.1,7.1,6.1,14.5,6.1,22.4V57z"/>
	<path d="M23.3,80.7h67V34.6h-67C23.3,34.6,23.3,80.7,23.3,80.7z M28.9,75.1V44.8l27.8,27l28-27.2v30.5
		C84.7,75.1,28.9,75.1,28.9,75.1z M33.2,40.2h46.9L56.7,63L33.2,40.2z"/>
</g>
</svg>
