<?xml version="1.0" encoding="utf-8"?>
<!-- Generator: Adobe Illustrator 21.0.2, SVG Export Plug-In . SVG Version: 6.00 Build 0)  -->
<svg version="1.1" id="Layer_1" xmlns="http://www.w3.org/2000/svg" xmlns:xlink="http://www.w3.org/1999/xlink" x="0px" y="0px"
	 viewBox="0 0 100 100" style="enable-background:new 0 0 100 100;" xml:space="preserve">
<style type="text/css">
	.st0{fill:#FFFFFF;}
</style>
<g>
	<path class="st0" d="M93.2,24.6c-0.9-1.7-2.3-3.7-4.2-6c-0.7-1-2.2-2.7-4.6-5c-2-1.8-3.9-3.4-5.7-4.7C69.9,3,60.4,0,50.3,0h-0.6
		c-8.8,0-17.2,2.3-25.1,6.8c-1.6,1-3.6,2.4-6,4.2c-1,0.7-2.7,2.2-5,4.6c-1.8,2-3.4,3.9-4.7,5.7C3,30.1,0,39.6,0,49.7v0.6
		c0,8.8,2.3,17.2,6.8,25.1c0.9,1.7,2.3,3.7,4.2,6c0.7,1,2.2,2.7,4.6,5c2,1.8,3.9,3.4,5.7,4.7c8.8,6,18.3,8.9,28.4,8.9h0.6
		c8.8,0,17.2-2.3,25.1-6.8c1.7-0.9,3.7-2.3,6-4.2c1-0.7,2.7-2.2,5-4.6c1.8-2,3.4-3.9,4.7-5.7c6-8.8,8.9-18.3,8.9-28.4v-0.6
		C100,40.9,97.7,32.6,93.2,24.6z M94.7,50.3c0,9-2.7,17.5-8,25.4c-1.1,1.6-2.5,3.2-4.2,5c-2,2.1-3.5,3.5-4.5,4.1
		c-2.1,1.7-3.9,2.9-5.4,3.8c-7.1,4.1-14.5,6.1-22.4,6.1h-0.6c-9,0-17.5-2.7-25.4-8c-1.6-1.1-3.2-2.5-5-4.2c-2.1-2-3.5-3.5-4.1-4.5
		c-1.7-2.1-2.9-3.9-3.8-5.4c-4.1-7.1-6.1-14.5-6.1-22.4v-0.6c0-9,2.7-17.5,8-25.4c1.1-1.6,2.5-3.2,4.2-5c2-2.1,3.5-3.5,4.5-4.1
		c2.1-1.7,3.9-2.9,5.4-3.8c7.1-4.1,14.5-6.1,22.4-6.1h0.6c9,0,17.5,2.7,25.4,8c1.6,1.1,3.2,2.5,5,4.2c2.1,2,3.5,3.5,4.1,4.5
		c1.7,2.1,2.9,3.9,3.8,5.4c4.1,7.1,6.1,14.5,6.1,22.4V50.3z"/>
	<path class="st0" d="M16.6,74h67V27.9h-67C16.6,27.9,16.6,74,16.6,74z M22.2,68.4V38.1l27.8,27l28-27.2v30.5
		C78,68.4,22.2,68.4,22.2,68.4z M26.5,33.5h46.9L50,56.3L26.5,33.5z"/>
</g>
</svg>
