<?xml version="1.0" encoding="utf-8"?>
<!-- Generator: Adobe Illustrator 24.3.0, SVG Export Plug-In . SVG Version: 6.00 Build 0)  -->
<svg version="1.1" id="Layer_1" xmlns="http://www.w3.org/2000/svg" xmlns:xlink="http://www.w3.org/1999/xlink" x="0px" y="0px"
	 viewBox="0 0 113.4 113.4" style="enable-background:new 0 0 113.4 113.4;" xml:space="preserve">
<style type="text/css">
	.st0{fill:#FFFFFF;}
</style>
<path class="st0" d="M56.4,0H57c11.5,0,22.2,3.4,32.2,10.1c2,1.5,4.2,3.2,6.5,5.3c2.7,2.6,4.4,4.5,5.2,5.7c2,2.7,3.6,5,4.8,6.8
	c5.1,9,7.7,18.4,7.7,28.4V57c0,11.5-3.4,22.2-10.1,32.2c-1.5,2-3.2,4.2-5.3,6.5c-2.6,2.7-4.5,4.4-5.7,5.2c-2.7,2-5,3.6-6.8,4.8
	c-9,5.1-18.4,7.7-28.4,7.7h-0.7c-11.5,0-22.2-3.4-32.2-10.1c-2-1.5-4.2-3.2-6.5-5.3c-2.7-2.6-4.4-4.5-5.2-5.7c-2-2.7-3.6-5-4.8-6.8
	C2.6,76.5,0,66.9,0,56.9v-0.7c0-11.5,3.4-22.2,10.1-32.2c1.5-2,3.2-4.2,5.3-6.5c2.6-2.7,4.5-4.4,5.7-5.2c2.7-2,5-3.6,6.8-4.8
	C36.8,2.6,46.4,0,56.4,0z"/>
<g>
	<path d="M56.3,6.6h0.6c10.1,0,19.5,3,28.3,8.9c1.8,1.3,3.7,2.8,5.7,4.7c2.4,2.3,3.9,4,4.6,5c1.8,2.4,3.2,4.4,4.2,6
		c4.5,7.9,6.8,16.2,6.8,25v0.6c0,10.1-3,19.5-8.9,28.3c-1.3,1.8-2.8,3.7-4.7,5.7c-2.3,2.4-4,3.9-5,4.6c-2.4,1.8-4.4,3.2-6,4.2
		c-7.9,4.5-16.2,6.8-25,6.8h-0.6c-10.1,0-19.5-3-28.3-8.9c-1.8-1.3-3.7-2.8-5.7-4.7c-2.4-2.3-3.9-4-4.6-5c-1.8-2.4-3.2-4.4-4.2-6
		C9,73.9,6.7,65.5,6.7,56.7v-0.6c0-10.1,3-19.5,8.9-28.3c1.3-1.8,2.8-3.7,4.7-5.7c2.3-2.4,4-3.9,5-4.6c2.4-1.8,4.4-3.2,6-4.2
		C39.1,8.9,47.5,6.6,56.3,6.6z M34,18c-1.5,0.8-3.3,2.1-5.4,3.8c-0.9,0.6-2.4,2-4.5,4.1c-1.7,1.8-3,3.5-4.2,5
		c-5.3,7.9-8,16.3-8,25.3v0.6c0,7.8,2,15.3,6.1,22.3c0.8,1.5,2.1,3.3,3.8,5.4c0.6,0.9,2,2.4,4.1,4.5c1.8,1.7,3.5,3,5,4.2
		c7.9,5.3,16.3,8,25.3,8h0.6c7.8,0,15.3-2,22.3-6.1c1.5-0.8,3.3-2.1,5.4-3.8c0.9-0.6,2.4-2,4.5-4.1c1.7-1.8,3-3.5,4.2-5
		c5.3-7.9,8-16.3,8-25.3v-0.6c0-7.8-2-15.3-6.1-22.3c-0.8-1.5-2.1-3.3-3.8-5.4c-0.6-0.9-2-2.4-4.1-4.5c-1.8-1.7-3.5-3-5-4.2
		c-7.9-5.3-16.3-8-25.3-8h-0.6C48.4,11.9,41,13.9,34,18z M58.2,27.4c-2.7,1.1-4.8,2.8-6.1,5c-1.4,2.4-2.1,5.1-2.1,8.1v8.2h-9.4v0.1
		v10.8v0.1H50v28h0.1h11.2h0.1v-28h9.4c0-0.3,0.5-4,1.4-10.9c0,0,0-0.1-0.1-0.1H61.3v-6.1c0-1.7,0.1-2.8,0.2-3.2
		c0-0.1,0.1-0.5,0.4-1.1c0.4-0.7,1.1-1.2,2.1-1.6c0.6-0.2,1.8-0.4,3.5-0.4h5v0.1v-9.6v-0.1c-2.6-0.3-5.3-0.4-8.2-0.4H64
		C61.9,26.3,60,26.7,58.2,27.4z"/>
</g>
</svg>
