<?xml version="1.0" encoding="utf-8"?>
<!-- Generator: Adobe Illustrator 21.0.2, SVG Export Plug-In . SVG Version: 6.00 Build 0)  -->
<svg version="1.1" id="Layer_1" xmlns="http://www.w3.org/2000/svg" xmlns:xlink="http://www.w3.org/1999/xlink" x="0px" y="0px"
	 viewBox="0 0 100 100" style="enable-background:new 0 0 100 100;" xml:space="preserve">
<g>
	<path d="M49.7,0h0.6c10.1,0,19.6,3,28.4,8.9c1.8,1.3,3.7,2.8,5.7,4.7c2.4,2.3,3.9,4,4.6,5c1.8,2.4,3.2,4.4,4.2,6
		c4.5,7.9,6.8,16.3,6.8,25.1v0.6c0,10.1-3,19.6-8.9,28.4c-1.3,1.8-2.8,3.7-4.7,5.7c-2.3,2.4-4,3.9-5,4.6c-2.4,1.8-4.4,3.2-6,4.2
		c-7.9,4.5-16.3,6.8-25.1,6.8h-0.6c-10.1,0-19.6-3-28.4-8.9c-1.8-1.3-3.7-2.8-5.7-4.7c-2.4-2.3-3.9-4-4.6-5c-1.8-2.4-3.2-4.4-4.2-6
		C2.3,67.4,0,59.1,0,50.3v-0.6c0-10.1,3-19.6,8.9-28.4c1.3-1.8,2.8-3.7,4.7-5.7c2.3-2.4,4-3.9,5-4.6c2.4-1.8,4.4-3.2,6-4.2
		C32.6,2.3,40.9,0,49.7,0z M27.3,11.4c-1.5,0.9-3.3,2.1-5.4,3.8c-0.9,0.6-2.4,2-4.5,4.1c-1.7,1.8-3.1,3.5-4.2,5
		c-5.4,7.9-8,16.4-8,25.4v0.6c0,7.9,2,15.3,6.1,22.4c0.9,1.5,2.1,3.3,3.8,5.4c0.6,0.9,2,2.4,4.1,4.5c1.8,1.7,3.5,3.1,5,4.2
		c7.9,5.4,16.4,8,25.4,8h0.6c7.9,0,15.3-2,22.4-6.1c1.5-0.9,3.3-2.1,5.4-3.8c0.9-0.6,2.4-2,4.5-4.1c1.7-1.8,3.1-3.5,4.2-5
		c5.4-7.9,8-16.4,8-25.4v-0.6c0-7.9-2-15.3-6.1-22.4c-0.9-1.5-2.1-3.3-3.8-5.4c-0.6-0.9-2-2.4-4.1-4.5c-1.8-1.7-3.5-3.1-5-4.2
		c-7.9-5.4-16.4-8-25.4-8h-0.6C41.9,5.3,34.4,7.3,27.3,11.4z M37.5,29.5h0.3h0.1c0.1,0,0.2,0,0.2,0h0.7c4.4,0,8.9,1.8,13.4,5.3v0.1
		c-0.9,1-2.4,2.7-4.7,5c-0.4,0.4-0.7,0.6-0.7,0.6h-0.1c-2.9-2-6-3-9.1-3c-2.9,0-5.5,0.9-7.7,2.7c-0.3,0.2-0.8,0.7-1.5,1.3
		c-0.9,1-1.5,1.8-1.9,2.6c-1.2,2.1-1.8,4.5-1.8,7c0,3.4,1.1,6.4,3.2,8.9c0.8,0.8,1.3,1.3,1.7,1.6c2.3,2,5.1,3,8.3,3
		c3,0,5.8-0.9,8.3-2.8c1-0.9,1.7-1.6,2-2.1c0.6-0.9,1-1.6,1.3-2.2c0.4-1.1,0.6-1.8,0.6-2.1c-7.7,0-11.7-0.1-12.2-0.1v-7.2V48H52
		c1.5,0,3.6,0,6.4,0v0.1c0.1,1,0.1,1.8,0.1,2.6v0.4c0,7.6-2.6,13.4-7.7,17.5c-1.4,0.9-2.5,1.6-3.5,2.1c-2.9,1.3-6,2-9.1,2h-0.4
		c-4,0-7.8-1.1-11.3-3.2c-4.1-2.7-7.1-6.3-8.8-10.9c-0.9-2.3-1.3-4.5-1.3-6.7v-0.3c0-1,0.1-2.3,0.2-3.7c0.2-1.1,0.4-2.1,0.7-2.9
		c1.4-4.5,4.1-8.1,8-11C29.2,30.9,33.2,29.5,37.5,29.5z M71.8,41.8h6l0.1,6.1c3,0,5.1,0,6.1,0V48v6c-3.3,0-5.3,0.1-6.1,0.1
		c0,2.7,0,4.8-0.1,6.1h-6h-0.1c0-0.3,0-0.5,0-0.6c0-0.8,0-2.6,0-5.5c-3.6,0-5.6-0.1-6.1-0.1v-6v-0.1c3.7,0,5.7,0,6.1,0
		C71.7,46.5,71.7,44.5,71.8,41.8L71.8,41.8z"/>
</g>
</svg>
