<?xml version="1.0" encoding="utf-8"?>
<!-- Generator: Adobe Illustrator 24.3.0, SVG Export Plug-In . SVG Version: 6.00 Build 0)  -->
<svg version="1.1" id="Layer_1" xmlns="http://www.w3.org/2000/svg" xmlns:xlink="http://www.w3.org/1999/xlink" x="0px" y="0px"
	 viewBox="0 0 113.4 113.4" style="enable-background:new 0 0 113.4 113.4;" xml:space="preserve">
<style type="text/css">
	.st0{fill:#FFFFFF;}
</style>
<path class="st0" d="M56.4,0H57c11.5,0,22.2,3.4,32.2,10.1c2,1.5,4.2,3.2,6.5,5.3c2.7,2.6,4.4,4.5,5.2,5.7c2,2.7,3.6,5,4.8,6.8
	c5.1,9,7.7,18.5,7.7,28.5V57c0,11.5-3.4,22.2-10.1,32.2c-1.5,2-3.2,4.2-5.3,6.5c-2.6,2.7-4.5,4.4-5.7,5.2c-2.7,2-5,3.6-6.8,4.8
	c-9,5.1-18.5,7.7-28.5,7.7h-0.7c-11.5,0-22.2-3.4-32.2-10.1c-2-1.5-4.2-3.2-6.5-5.3c-2.7-2.6-4.4-4.5-5.2-5.7c-2-2.7-3.6-5-4.8-6.8
	C2.6,76.4,0,67,0,57v-0.7c0-11.5,3.4-22.2,10.1-32.2c1.5-2,3.2-4.2,5.3-6.5c2.6-2.7,4.5-4.4,5.7-5.2c2.7-2,5-3.6,6.8-4.8
	C37,2.6,46.4,0,56.4,0z"/>
<g>
	<path d="M56.4,6.7H57c10.1,0,19.6,3,28.4,8.9c1.8,1.3,3.7,2.8,5.7,4.7c2.4,2.3,3.9,4,4.6,5c1.8,2.4,3.2,4.4,4.2,6
		c4.5,7.9,6.8,16.3,6.8,25.1V57c0,10.1-3,19.6-8.9,28.4c-1.3,1.8-2.8,3.7-4.7,5.7c-2.3,2.4-4,3.9-5,4.6c-2.4,1.8-4.4,3.2-6,4.2
		c-7.9,4.5-16.3,6.8-25.1,6.8h-0.6c-10.1,0-19.6-3-28.4-8.9c-1.8-1.3-3.7-2.8-5.7-4.7c-2.4-2.3-3.9-4-4.6-5c-1.8-2.4-3.2-4.4-4.2-6
		C9,74.1,6.7,65.8,6.7,57v-0.6c0-10.1,3-19.6,8.9-28.4c1.3-1.8,2.8-3.7,4.7-5.7c2.3-2.4,4-3.9,5-4.6c2.4-1.8,4.4-3.2,6-4.2
		C39.3,9,47.6,6.7,56.4,6.7z M34,18.1c-1.5,0.9-3.3,2.1-5.4,3.8c-0.9,0.6-2.4,2-4.5,4.1c-1.7,1.8-3.1,3.5-4.2,5
		c-5.4,7.9-8,16.4-8,25.4V57c0,7.9,2,15.3,6.1,22.4c0.9,1.5,2.1,3.3,3.8,5.4c0.6,0.9,2,2.4,4.1,4.5c1.8,1.7,3.5,3.1,5,4.2
		c7.9,5.4,16.4,8,25.4,8h0.6c7.9,0,15.3-2,22.4-6.1c1.5-0.9,3.3-2.1,5.4-3.8c0.9-0.6,2.4-2,4.5-4.1c1.7-1.8,3.1-3.5,4.2-5
		c5.4-7.9,8-16.4,8-25.4v-0.6c0-7.9-2-15.3-6.1-22.4c-0.9-1.5-2.1-3.3-3.8-5.4c-0.6-0.9-2-2.4-4.1-4.5c-1.8-1.7-3.5-3.1-5-4.2
		C74.5,14.6,66,12,57,12h-0.6C48.6,12,41.1,14,34,18.1z M57.8,47v0.3c0,0.8,0.1,1.7,0.4,2.7h-0.1c-0.9,0-2.8-0.2-5.5-0.6
		c-2.3-0.5-4.3-1.1-6.1-1.8c-1.9-0.8-3.9-1.8-6.1-3.2c-1.7-1-3.5-2.5-5.5-4.4c-1-1.1-2-2.1-2.9-3.1C30.9,39,30.4,41,30.4,43v0.5
		c0,2.7,1,5.4,3,8c1,1.1,1.8,1.9,2.5,2.3v-0.1c-1.7,0-3.6-0.5-5.6-1.6v0.4c0,3.3,1.3,6.3,3.8,8.9c1.6,1.5,3.1,2.4,4.5,2.8
		c0.9,0.3,1.5,0.5,1.7,0.5c0,0.1-0.5,0.2-1.4,0.4c-0.6,0.1-1,0.1-1.3,0.1h-0.3c-0.1,0-0.2,0-0.2,0h-0.2h-0.2c-0.6,0-1.3-0.1-2.1-0.2
		c1,2.9,2.8,5.2,5.2,6.7c2.2,1.4,4.4,2.1,6.6,2.1c-1.2,1-2.4,1.8-3.6,2.4c-3.9,2-7.8,3-11.6,3h-0.9c-0.9,0-1.7,0-2.6-0.1
		c2.4,1.6,4.9,2.8,7.7,3.8c3.8,1.3,7.7,2,11.7,2c6.4,0,12.4-1.5,17.8-4.5c1.8-0.9,3.6-2.3,5.7-4c1.9-1.8,3.3-3.1,4-4
		c1.7-2.1,3.1-4.2,4.3-6.4c0.8-1.5,1.6-3.2,2.3-5.1c1.4-4.1,2.1-7.9,2.1-11.5v-1.8v-0.4c0.7-0.4,1.9-1.4,3.6-3.1
		c1.2-1.3,2.1-2.4,2.8-3.5h-0.1c-1.6,0.7-3.3,1.2-5,1.6c-1.3,0.2-2,0.3-2.1,0.3v-0.1c0.5-0.2,1.4-0.9,2.6-2.1
		c1.4-1.7,2.4-3.3,2.8-4.8c-1.7,1-3.4,1.8-5.2,2.3c-1.6,0.5-2.6,0.7-2.9,0.7c-1.2-1.1-2.1-1.8-2.7-2.1c-2-1.2-4.2-1.8-6.5-1.8h-0.1
		c-3.4,0-6.3,1.2-8.9,3.6C59.1,40.7,57.8,43.7,57.8,47z"/>
</g>
</svg>
